#N canvas 0 22 681 545 10;
#X obj 35 -10 inlet~;
#X obj 19 507 outlet~;
#X obj 70 250 cos~;
#X obj 70 273 +~ 1;
#X obj 70 299 *~ 0.5;
#X obj 85 331 *~;
#X obj 200 244 cos~;
#X obj 200 272 +~ 1;
#X obj 200 298 *~ 0.5;
#X obj 215 342 *~;
#X obj 338 244 cos~;
#X obj 338 272 +~ 1;
#X obj 338 298 *~ 0.5;
#X obj 345 342 *~;
#X obj 54 157 delwrite~ \$0-chorus-signal 500;
#X obj 85 374 vd~ \$0-chorus-signal;
#X obj 215 376 vd~ \$0-chorus-signal;
#X obj 345 375 vd~ \$0-chorus-signal;
#X obj 19 483 gswitch~;
#X obj 70 203 phasor~;
#X obj 200 200 phasor~;
#X obj 338 197 phasor~;
#X obj 468 243 cos~;
#X obj 468 271 +~ 1;
#X obj 468 297 *~ 0.5;
#X obj 475 341 *~;
#X obj 475 374 vd~ \$0-chorus-signal;
#X obj 468 199 phasor~;
#X obj 200 222 +~ 0.25;
#X obj 338 220 +~ 0.5;
#X obj 468 220 +~ 0.75;
#X obj 85 397 *~ 0.25;
#X obj 215 397 *~ 0.25;
#X obj 345 397 *~ 0.25;
#X obj 475 396 *~ 0.25;
#X obj 121 17 route rate depth mix on;
#X obj 126 298 * 10;
#X obj 258 298 * 10;
#X obj 398 294 * 10;
#X obj 528 296 * 10;
#X obj 121 -12 inlet METHODS;
#X obj 352 82 print ERROR invalid chorus method;
#X obj 85 437 *~ 1;
#X obj 70 109 scale127 15;
#X obj 176 103 scale127 1.5;
#X obj 258 103 scale127 1;
#X connect 0 0 14 0;
#X connect 0 0 18 0;
#X connect 0 0 18 1;
#X connect 2 0 3 0;
#X connect 3 0 4 0;
#X connect 4 0 5 0;
#X connect 5 0 15 0;
#X connect 6 0 7 0;
#X connect 7 0 8 0;
#X connect 8 0 9 0;
#X connect 9 0 16 0;
#X connect 10 0 11 0;
#X connect 11 0 12 0;
#X connect 12 0 13 0;
#X connect 13 0 17 0;
#X connect 15 0 31 0;
#X connect 16 0 32 0;
#X connect 17 0 33 0;
#X connect 18 0 1 0;
#X connect 19 0 2 0;
#X connect 20 0 28 0;
#X connect 21 0 29 0;
#X connect 22 0 23 0;
#X connect 23 0 24 0;
#X connect 24 0 25 0;
#X connect 25 0 26 0;
#X connect 26 0 34 0;
#X connect 27 0 30 0;
#X connect 28 0 6 0;
#X connect 29 0 10 0;
#X connect 30 0 22 0;
#X connect 31 0 42 0;
#X connect 32 0 42 0;
#X connect 33 0 42 0;
#X connect 34 0 42 0;
#X connect 35 0 43 0;
#X connect 35 1 44 0;
#X connect 35 2 45 0;
#X connect 35 4 41 0;
#X connect 35 4 18 2;
#X connect 36 0 5 1;
#X connect 37 0 9 1;
#X connect 38 0 13 1;
#X connect 39 0 25 1;
#X connect 40 0 35 0;
#X connect 42 0 18 1;
#X connect 43 0 19 0;
#X connect 43 0 20 0;
#X connect 43 0 21 0;
#X connect 43 0 27 0;
#X connect 44 0 36 0;
#X connect 44 0 37 0;
#X connect 44 0 38 0;
#X connect 44 0 39 0;
#X connect 45 0 42 1;
