#N canvas 390 193 405 154 10;
#X obj 17 70 outlet~;
#X obj 17 48 gswitch~;
#X obj 17 -38 inlet~;
#X obj 39 15 autobiquad~;
#X obj 59 -17 route frequency resonance gain type on;
#X obj 165 50 print ERROR invalid filter method;
#X obj 59 -38 inlet METHODS;
#X connect 1 0 0 0;
#X connect 2 0 1 0;
#X connect 2 0 3 0;
#X connect 3 0 1 1;
#X connect 4 0 3 1;
#X connect 4 1 3 2;
#X connect 4 2 3 3;
#X connect 4 3 3 4;
#X connect 4 4 3 5;
#X connect 4 5 5 0;
#X connect 6 0 4 0;
