#N canvas 270 117 361 328 10;
#X obj 18 10 inlet~;
#X obj 18 296 outlet~;
#X obj 18 271 gswitch~;
#X obj 79 202 delwrite~ \$0-delay 20000;
#X obj 60 135 vd~ \$0-delay;
#X obj 60 46 route time feedback amount on;
#X obj 79 171 *~ 0.3;
#X obj 60 242 *~ 1;
#X obj 60 10 inlet METHODS;
#X obj 148 153 print ERROR invalid delay method;
#X obj 60 81 scale127 2000;
#X obj 104 104 scale127 1;
#X obj 151 77 scale127 1;
#X connect 0 0 2 0;
#X connect 0 0 3 0;
#X connect 0 0 2 1;
#X connect 2 0 1 0;
#X connect 4 0 6 0;
#X connect 4 0 7 0;
#X connect 5 0 10 0;
#X connect 5 1 11 0;
#X connect 5 2 12 0;
#X connect 5 3 2 2;
#X connect 5 4 9 0;
#X connect 6 0 3 0;
#X connect 7 0 2 1;
#X connect 8 0 5 0;
#X connect 10 0 4 0;
#X connect 11 0 6 1;
#X connect 12 0 7 1;
