#N canvas 390 193 404 367 10;
#X obj 17 200 outlet~;
#X obj 17 178 gswitch~;
#X obj 17 -38 inlet~;
#X obj 59 -17 route frequency resonance gain type on;
#X obj 165 160 print ERROR invalid filter method;
#X obj 59 -38 inlet METHODS;
#X obj 101 33 scale127 20;
#X obj 116 55 scale127 36;
#X obj 39 155 autobiquad2~;
#X obj 56 110 line~;
#X obj 73 130 line~;
#X obj 100 110 line~;
#X msg 49 84 \$1 5;
#X msg 71 84 \$1 5;
#X msg 100 84 \$1 5;
#X obj 48 8 / 127;
#X obj 48 32 pow 2.8;
#X obj 49 57 * 22000;
#X connect 1 0 0 0;
#X connect 2 0 1 0;
#X connect 2 0 8 0;
#X connect 3 0 15 0;
#X connect 3 1 6 0;
#X connect 3 2 7 0;
#X connect 3 3 8 4;
#X connect 3 4 1 2;
#X connect 3 5 4 0;
#X connect 5 0 3 0;
#X connect 6 0 13 0;
#X connect 7 0 14 0;
#X connect 8 0 1 1;
#X connect 9 0 8 1;
#X connect 10 0 8 2;
#X connect 11 0 8 3;
#X connect 12 0 9 0;
#X connect 13 0 10 0;
#X connect 14 0 11 0;
#X connect 15 0 16 0;
#X connect 16 0 17 0;
#X connect 17 0 12 0;
