#N canvas 512 398 298 330 10;
#X obj 5 -117 inlet~;
#X obj 5 145 outlet~;
#X obj 20 92 limiter~;
#X obj 141 -112 block~ 64 1;
#X obj 5 122 *~;
#X connect 0 0 4 0;
#X connect 0 0 2 0;
#X connect 2 0 4 1;
#X connect 4 0 1 0;
