#N canvas 372 269 194 190 10;
#X obj -5 -66 inlet~;
#X obj -4 93 outlet~;
#X obj 46 -66 inlet~;
#X obj 46 93 outlet~;
#X obj -4 71 *~ 0.5;
#X obj 46 71 *~ 0.5;
#X obj 78 -22 clip 0 1;
#X obj 93 -65 inlet AMOUNT;
#X obj 78 1 swap 1;
#X obj 78 23 -;
#X obj 78 44 abs;
#X connect 0 0 4 0;
#X connect 2 0 5 0;
#X connect 4 0 1 0;
#X connect 5 0 3 0;
#X connect 6 0 4 1;
#X connect 6 0 8 0;
#X connect 7 0 6 0;
#X connect 8 0 9 0;
#X connect 8 1 9 1;
#X connect 9 0 10 0;
#X connect 10 0 5 1;
