#N canvas 15 23 450 340 10;
#X obj 25 24 inlet~;
#X obj 25 299 outlet~;
#X obj 47 253 *~;
#X obj 62 167 osc~;
#X obj 62 212 +~ 1;
#X obj 62 233 /~ 2;
#X obj 25 277 gswitch~;
#X obj 74 64 route rate depth on;
#X obj 194 98 print ERROR invalid ringmod method;
#X obj 72 24 inlet METHODS;
#X obj 99 166 clip 0 1;
#X obj 62 191 *~ 1;
#X obj 71 111 scale127 1000;
#X obj 96 137 scale127 1;
#X connect 0 0 2 0;
#X connect 0 0 6 0;
#X connect 2 0 6 1;
#X connect 3 0 11 0;
#X connect 4 0 5 0;
#X connect 5 0 2 1;
#X connect 6 0 1 0;
#X connect 7 0 12 0;
#X connect 7 1 13 0;
#X connect 7 2 6 2;
#X connect 7 3 8 0;
#X connect 9 0 7 0;
#X connect 10 0 11 1;
#X connect 11 0 4 0;
#X connect 12 0 3 0;
#X connect 13 0 10 0;
