#N canvas 51 244 611 233 10;
#X obj -78 15 inlet;
#X obj 336 15 inlet RANGE;
#X obj 234 15 inlet PITCH_BEND;
#X obj 157 16 inlet FLUSH;
#X obj 87 16 inlet ADSR;
#X obj -7 17 inlet WAVEFORM;
#X obj 415 15 inlet PRINT TOGGLE;
#X obj -78 129 +~;
#X obj -78 153 +~;
#X obj -78 176 +~;
#X obj -78 202 outlet~;
#X obj -29 202 outlet ON_OFF;
#X obj -29 129 tgl 15 0 empty empty empty 17 7 0 10 -262144 -1 -1 0
1;
#X obj -78 107 voice~ 1;
#X msg -7 76 wave \$1;
#X msg 218 76 pitchbend \$1;
#X msg 302 76 range \$1;
#X msg 363 76 print \$1;
#X msg 182 76 kill;
#X obj -7 52 symbol;
#X msg 57 77 adsr \$1 \$2 \$3 \$4;
#X connect 0 0 13 0;
#X connect 1 0 16 0;
#X connect 2 0 15 0;
#X connect 3 0 18 0;
#X connect 4 0 20 0;
#X connect 5 0 19 0;
#X connect 6 0 17 0;
#X connect 7 0 8 0;
#X connect 8 0 9 0;
#X connect 9 0 10 0;
#X connect 12 0 11 0;
#X connect 13 0 7 0;
#X connect 13 1 12 0;
#X connect 14 0 13 0;
#X connect 15 0 13 0;
#X connect 16 0 13 0;
#X connect 17 0 13 0;
#X connect 18 0 13 0;
#X connect 19 0 14 0;
#X connect 20 0 13 0;
