#N canvas 528 168 706 544 10;
#X obj -1 463 outlet~;
#X obj -1 436 *~;
#X obj -1 132 mtof;
#X obj 354 97 bng 15 250 50 0 empty empty empty 17 7 0 10 -262144 -1
-1;
#X obj -1 110 +;
#X obj 394 53 - 64;
#X obj 393 74 / 64;
#X obj 393 96 * 12;
#X obj 393 119 s \$0-pitch_bend;
#X obj -22 59 r \$0-pitch_bend;
#X obj 37 81 t b f;
#X obj 356 370 outlet;
#X obj 270 72 list prepend set;
#X obj 270 94 list trim;
#X obj 311 135 route on;
#X obj -1 31 unpack 0 0;
#X msg 481 265 print \$1;
#X msg 354 259 kill;
#X obj 270 -17 inlet METHODS;
#X obj 257 282 adsr~ -----------;
#X obj -1 155 phasor~;
#X obj -1 213 *~ 2051;
#X obj 85 154 phasor~;
#X obj 85 229 *~ 2051;
#X obj 85 205 wrap~;
#X obj 1 7 r \$0-note;
#X obj 609 53 s \$0-note;
#X obj -1 249 tabread~ default_wavetable;
#X obj 85 281 tabread~ default_wavetable;
#X obj 70 334 *~;
#X obj 270 10 route waveform adsr flush pitchbend pitchbend_range print
phase mode;
#X obj -1 411 transistor~;
#X obj 70 411 transistor~;
#X obj 142 411 transistor~;
#X obj 142 336 -~;
#X obj 205 348 r \$0-mode;
#X obj 62 379 == 0;
#X obj 133 379 == 1;
#X obj 205 375 == 2;
#X obj 609 74 loadbang;
#X msg 609 93 0;
#X obj 566 116 s \$0-mode;
#X obj 524 139 s \$0-phase;
#X obj 135 154 r \$0-phase;
#X obj 364 308 sel 0;
#X msg 364 331 64;
#X obj 85 178 +~ 0;
#X connect 1 0 0 0;
#X connect 2 0 20 0;
#X connect 2 0 22 0;
#X connect 3 0 17 0;
#X connect 4 0 2 0;
#X connect 5 0 6 0;
#X connect 6 0 7 0;
#X connect 7 0 8 0;
#X connect 9 0 10 0;
#X connect 10 0 4 0;
#X connect 10 1 4 1;
#X connect 12 0 13 0;
#X connect 13 0 27 0;
#X connect 13 0 28 0;
#X connect 14 1 19 1;
#X connect 15 0 4 0;
#X connect 15 1 19 0;
#X connect 16 0 19 0;
#X connect 17 0 19 0;
#X connect 18 0 30 0;
#X connect 19 0 1 1;
#X connect 19 1 11 0;
#X connect 19 1 44 0;
#X connect 20 0 21 0;
#X connect 21 0 27 0;
#X connect 22 0 46 0;
#X connect 23 0 28 0;
#X connect 24 0 23 0;
#X connect 25 0 15 0;
#X connect 27 0 29 0;
#X connect 27 0 34 0;
#X connect 27 0 31 0;
#X connect 28 0 29 1;
#X connect 28 0 34 1;
#X connect 29 0 32 0;
#X connect 30 0 12 0;
#X connect 30 1 14 0;
#X connect 30 2 3 0;
#X connect 30 3 5 0;
#X connect 30 4 7 1;
#X connect 30 5 16 0;
#X connect 30 6 42 0;
#X connect 30 7 41 0;
#X connect 30 8 26 0;
#X connect 31 0 1 0;
#X connect 32 0 1 0;
#X connect 33 0 1 0;
#X connect 34 0 33 0;
#X connect 35 0 36 0;
#X connect 35 0 37 0;
#X connect 35 0 38 0;
#X connect 36 0 31 1;
#X connect 37 0 32 1;
#X connect 38 0 33 1;
#X connect 39 0 40 0;
#X connect 40 0 41 0;
#X connect 43 0 46 1;
#X connect 44 0 45 0;
#X connect 45 0 5 0;
#X connect 46 0 24 0;
