#N canvas 528 168 683 350 10;
#X obj 89 283 outlet~;
#X obj 89 256 *~;
#X obj 89 152 mtof;
#X obj 353 97 bng 15 250 50 0 empty empty empty 17 7 0 10 -262144 -1
-1;
#X obj 89 130 +;
#X obj 394 53 - 64;
#X obj 393 74 / 64;
#X obj 393 96 * 12;
#X obj 393 119 s \$0-pitch_bend;
#X obj -22 79 r \$0-pitch_bend;
#X obj 37 101 t b f;
#X obj 355 280 outlet;
#X obj 270 72 list prepend set;
#X obj 270 94 list trim;
#X obj 311 135 route on;
#X obj 89 71 unpack 0 0;
#X msg 477 191 print \$1;
#X msg 353 185 kill;
#X obj 270 -17 inlet METHODS;
#X obj 256 208 adsr~ -----------;
#X obj 89 208 tabosc4~ default_wavetable;
#X obj 270 10 route waveform adsr flush pitchbend pitchbend_range print
;
#X connect 1 0 0 0;
#X connect 2 0 20 0;
#X connect 3 0 17 0;
#X connect 4 0 2 0;
#X connect 5 0 6 0;
#X connect 6 0 7 0;
#X connect 7 0 8 0;
#X connect 9 0 10 0;
#X connect 10 0 4 0;
#X connect 10 1 4 1;
#X connect 12 0 13 0;
#X connect 13 0 20 0;
#X connect 14 1 19 1;
#X connect 15 0 4 0;
#X connect 15 1 19 0;
#X connect 16 0 19 0;
#X connect 17 0 19 0;
#X connect 18 0 21 0;
#X connect 19 0 1 1;
#X connect 19 1 11 0;
#X connect 20 0 1 0;
#X connect 21 0 12 0;
#X connect 21 1 14 0;
#X connect 21 2 3 0;
#X connect 21 3 5 0;
#X connect 21 4 7 1;
#X connect 21 5 16 0;
#X connect 21 6 15 0;
