#N canvas 603 419 541 566 10;
#N canvas 835 181 450 300 receivers 1;
#X obj 18 14 r master;
#X obj 18 36 route chorus tremolo delay ringmod filter reverb envelope
lfo gain volume pan;
#X obj 18 70 s \$0-chorus;
#X obj 48 91 s \$0-tremolo;
#X obj 79 112 s \$0-delay;
#X obj 110 133 s \$0-ringmod;
#X obj 141 74 s \$0-filter;
#X obj 172 95 s \$0-reverb;
#X obj 202 116 s \$0-envelope;
#X obj 233 137 s \$0-lfo;
#X obj 264 95 s \$0-gain;
#X obj 295 116 s \$0-volume;
#X obj 326 137 s \$0-pan;
#X connect 0 0 1 0;
#X connect 1 0 2 0;
#X connect 1 1 3 0;
#X connect 1 2 4 0;
#X connect 1 3 5 0;
#X connect 1 4 6 0;
#X connect 1 5 7 0;
#X connect 1 6 8 0;
#X connect 1 7 9 0;
#X connect 1 8 10 0;
#X connect 1 9 11 0;
#X connect 1 10 12 0;
#X restore 75 28 pd receivers;
