#N canvas 215 97 377 255 10;
#X obj 16 99 bng 15 250 50 0 empty empty empty 17 7 0 10 -262144 -1
-1;
#N canvas 413 442 116 77 \$0-guts 0;
#X obj 5 45 outlet~;
#N canvas 32 274 1314 267 \$0-shell 0;
#X obj 0 200 outlet~;
#X restore 5 5 pd \$0-shell;
#X connect 1 0 0 0;
#X restore 16 140 pd \$0-guts;
#X obj 16 224 outlet~;
#X obj 103 99 bng 15 250 50 0 empty empty empty 17 7 0 10 -262144 -1
-1;
#N canvas 543 308 230 221 \$0-reset 0;
#X obj 15 6 inlet;
#X obj 54 113 s pd-\$0-shell;
#X obj 34 153 s pd-\$0-guts;
#X obj 15 30 bng 15 250 50 0 empty empty empty 17 7 0 10 -262144 -1
-1;
#X obj 15 49 t b b b;
#X obj 15 194 s \$0-count;
#X msg 15 172 0;
#X obj 54 71 f \$0;
#X msg 54 93 clear \, obj 0 200 outlet~ \,;
#X msg 34 133 connect 1 0 0 0 \,;
#X connect 0 0 3 0;
#X connect 3 0 4 0;
#X connect 4 0 6 0;
#X connect 4 1 9 0;
#X connect 4 2 7 0;
#X connect 6 0 5 0;
#X connect 7 0 8 0;
#X connect 8 0 1 0;
#X connect 9 0 2 0;
#X restore 103 127 pd \$0-reset;
#X obj 16 8 inlet CONTROLS;
#N canvas 563 147 230 388 \$0-new 0;
#X obj 77 7 inlet;
#X obj 5 6 r \$0-count;
#X obj 5 31 + 1;
#X floatatom 5 90 5 0 0 0 - - -;
#X obj 39 367 s pd-\$0-shell;
#X obj 77 35 bng 15 250 50 0 empty empty empty 17 7 0 10 -262144 -1
-1;
#X obj 5 113 f!= 0;
#X obj 84 174 * 100;
#X obj 84 152 - 1;
#X obj 22 324 s;
#X obj 5 135 t f f f f;
#X obj 5 63 iterator;
#X obj 22 179 t f b f;
#X obj 39 200 pack 0 0 \$0;
#X obj 61 285 pack 0 \$0;
#X obj 46 113 s \$0-note-count;
#X obj 22 242 pack 0 \$0;
#N canvas 280 23 344 154 make_channel 0;
#X obj 76 118 outlet;
#X obj 10 22 t b b a;
#X msg 10 84 obj 0 125 outlet~ \, connect 0 0 1 0 \, connect 1 0 2
0 \, connect 2 0 3 0 \, loadbang;
#X obj 10 -2 inlet CHANNEL&DOLLAR0;
#X msg 49 42 obj 0 0 r note\$1 \, obj 0 25 list trim \,;
#X msg 29 63 obj 0 75 notelet_voice~;
#X connect 1 0 2 0;
#X connect 1 1 5 0;
#X connect 1 2 4 0;
#X connect 2 0 0 0;
#X connect 3 0 1 0;
#X connect 4 0 0 0;
#X connect 5 0 0 0;
#X restore 22 263 pd make_channel;
#X msg 39 221 obj \$2 100 pd \$3-ch\$1;
#X msg 61 307 symbol pd-\$2-ch\$1;
#X msg 5 345 connect \$1 0 0 0;
#X obj 5 158 + 0;
#X connect 0 0 5 0;
#X connect 1 0 2 0;
#X connect 2 0 11 0;
#X connect 3 0 6 0;
#X connect 3 0 15 0;
#X connect 5 0 11 5;
#X connect 6 0 10 0;
#X connect 7 0 13 1;
#X connect 8 0 7 0;
#X connect 10 0 21 0;
#X connect 10 1 12 0;
#X connect 10 2 13 0;
#X connect 10 3 8 0;
#X connect 11 0 3 0;
#X connect 12 0 16 0;
#X connect 12 2 14 0;
#X connect 13 0 18 0;
#X connect 14 0 19 0;
#X connect 16 0 17 0;
#X connect 17 0 9 0;
#X connect 18 0 4 0;
#X connect 19 0 9 1;
#X connect 20 0 4 0;
#X connect 21 0 20 0;
#X restore 16 117 pd \$0-new;
#X obj 139 66 loadbang;
#X obj 16 65 route new reset;
#X obj 152 98 print Error invalid master method;
#X obj 16 37 list trim;
#X connect 0 0 6 0;
#X connect 1 0 2 0;
#X connect 3 0 4 0;
#X connect 5 0 10 0;
#X connect 7 0 3 0;
#X connect 8 0 0 0;
#X connect 8 1 3 0;
#X connect 8 2 9 0;
#X connect 10 0 8 0;
