#N canvas 425 23 279 382 10;
#X obj 15 18 inlet~;
#X obj 15 349 outlet~;
#X obj 66 349 outlet~;
#X obj 15 137 multidelay~;
#X obj 15 171 multitremolo~;
#X obj 15 215 multifilter~;
#X obj 174 18 inlet METHODS;
#N canvas 374 353 368 204 methods 0;
#X obj -143 -27 inlet;
#X obj 121 20 s \$0-volume;
#N canvas 720 412 395 196 init 0;
#X obj 0 -2 loadbang;
#X obj 0 160 outlet;
#X msg 0 19 chorus rate 120 \, chorus depth 127 \, chorus mix 64 \,
chorus on 0 \, ringmod rate 64 \, ringmod depth 127 \, ringmod on 0
\, delay time 40 \, delay feedback 64 \, delay amount 127 \, delay
on 0 \, tremolo rate 15 \, tremolo depth 127 \, tremolo shape 2 \,
tremolo on 0 \, filter type lowpass \, filter frequency 127 \, filter
resonance 10 \, filter gain 30 \, filter on 0 \, pan 64 \, volume 127
\,;
#X connect 0 0 2 0;
#X connect 2 0 1 0;
#X restore -78 -26 pd init;
#X obj -143 20 s \$0-chorus;
#X obj -99 41 s \$0-ringmod;
#X obj -143 -6 route chorus ringmod delay tremolo filter pan volume
;
#X obj -55 20 s \$0-delay;
#X obj -11 41 s \$0-tremolo;
#X obj 33 20 s \$0-filter;
#X obj 77 42 s \$0-pan;
#X obj -25 97 print ERROR invalid effects method;
#X connect 0 0 5 0;
#X connect 2 0 5 0;
#X connect 5 0 3 0;
#X connect 5 1 4 0;
#X connect 5 2 6 0;
#X connect 5 3 7 0;
#X connect 5 4 8 0;
#X connect 5 5 9 0;
#X connect 5 6 1 0;
#X connect 5 7 10 0;
#X restore 174 38 pd methods;
#X obj 15 266 panner~;
#X obj 82 266 r \$0-volume;
#X obj 15 316 *~ 1;
#X obj 66 316 *~ 1;
#X obj 48 42 r \$0-chorus;
#X obj 90 149 r \$0-tremolo;
#X obj 78 113 r \$0-delay;
#X obj 54 84 r \$0-ringmod;
#X obj 54 237 r \$0-pan;
#X obj 15 105 ringmod;
#X obj 15 63 chorus;
#X obj 84 195 r \$0-filter;
#X obj 82 288 scale127 1;
#X connect 0 0 18 0;
#X connect 3 0 4 0;
#X connect 4 0 5 0;
#X connect 5 0 8 0;
#X connect 5 0 8 1;
#X connect 6 0 7 0;
#X connect 8 0 10 0;
#X connect 8 1 11 0;
#X connect 9 0 20 0;
#X connect 10 0 1 0;
#X connect 11 0 2 0;
#X connect 12 0 18 1;
#X connect 13 0 4 1;
#X connect 14 0 3 1;
#X connect 15 0 17 1;
#X connect 16 0 8 2;
#X connect 17 0 3 0;
#X connect 18 0 17 0;
#X connect 19 0 5 1;
#X connect 20 0 10 1;
#X connect 20 0 11 1;
