#N canvas 1042 376 238 121 10;
#N canvas 835 181 450 300 receivers 0;
#X obj 18 14 r master;
#X obj 18 36 route chorus tremolo delay ringmod filter reverb envelope
lfo gain volume pan;
#X obj 18 70 s \$0-chorus;
#X obj 48 91 s \$0-tremolo;
#X obj 79 112 s \$0-delay;
#X obj 110 133 s \$0-ringmod;
#X obj 141 74 s \$0-filter;
#X obj 172 95 s \$0-reverb;
#X obj 202 116 s \$0-envelope;
#X obj 233 137 s \$0-lfo;
#X obj 264 95 s \$0-gain;
#X obj 295 116 s \$0-volume;
#X obj 326 137 s \$0-pan;
#X connect 0 0 1 0;
#X connect 1 0 2 0;
#X connect 1 1 3 0;
#X connect 1 2 4 0;
#X connect 1 3 5 0;
#X connect 1 4 6 0;
#X connect 1 5 7 0;
#X connect 1 6 8 0;
#X connect 1 7 9 0;
#X connect 1 8 10 0;
#X connect 1 9 11 0;
#X connect 1 10 12 0;
#X restore 4 7 pd receivers;
#X obj 6 31 catch~ master_audio_bus;
#N canvas 378 144 295 396 effects 0;
#X obj 14 9 inlet~;
#X obj 14 359 outlet~;
#X obj 65 361 outlet~;
#X obj 14 54 chorus~;
#X obj 53 33 r \$0-chorus;
#X obj 14 129 multidelay~;
#X obj 77 107 r \$0-delay;
#X obj 14 163 freeverb~;
#X obj 14 98 ringmod~;
#X obj 59 76 r \$0-ringmod;
#X obj 14 189 multitremolo~;
#X obj 65 210 multitremolo~;
#X obj 140 172 r \$0-tremolo;
#X obj 65 273 multifilter~;
#X obj 14 252 multifilter~;
#X obj 134 235 r \$0-filter;
#X text 34 305 Pan \, Volume \, Gain \, Envelope \, LFO TBD;
#X connect 0 0 3 0;
#X connect 3 0 8 0;
#X connect 4 0 3 1;
#X connect 5 0 7 0;
#X connect 5 0 7 1;
#X connect 6 0 5 1;
#X connect 7 0 10 0;
#X connect 7 1 11 0;
#X connect 8 0 5 0;
#X connect 9 0 8 1;
#X connect 10 0 14 0;
#X connect 11 0 13 0;
#X connect 12 0 10 1;
#X connect 12 0 11 1;
#X connect 13 0 2 0;
#X connect 14 0 1 0;
#X connect 15 0 13 1;
#X connect 15 0 14 1;
#X restore 6 52 pd effects;
#X obj 6 74 cleanup~;
#X obj 6 96 dac~;
#X obj 156 7 loadbang;
#X msg 156 31 \; pd dsp 1 \;;
#X connect 1 0 2 0;
#X connect 2 0 3 0;
#X connect 2 1 3 1;
#X connect 3 0 4 0;
#X connect 3 1 4 1;
#X connect 5 0 6 0;
