#N canvas 770 23 220 261 10;
#X obj 5 8 inlet~;
#X obj 5 187 outlet~;
#X obj 121 7 inlet METHODS;
#N canvas 927 133 348 143 methods 1;
#X obj -143 -27 inlet;
#X obj -88 43 s \$0-volume;
#N canvas 204 509 395 196 init 1;
#X obj 0 -2 loadbang;
#X obj 0 160 outlet;
#X msg 0 20 filter frequency 127 \, volume 100 \,;
#X connect 0 0 2 0;
#X connect 2 0 1 0;
#X restore -78 -26 pd init;
#X obj -143 23 s \$0-filter;
#X obj -32 22 print ERROR invalid effects method;
#X obj -143 -6 route filter volume;
#X connect 0 0 5 0;
#X connect 2 0 5 0;
#X connect 5 0 3 0;
#X connect 5 1 1 0;
#X connect 5 2 4 0;
#X restore 121 27 pd methods;
#X obj 26 102 r \$0-volume;
#X obj 5 154 *~ 1;
#N canvas 285 185 462 157 lowpass 0;
#X obj 3 -18 lop~;
#X obj 3 -41 inlet~;
#X obj 3 2 lop~;
#X obj 3 22 lop~;
#X obj 3 42 lop~;
#X obj 3 62 lop~;
#X obj 3 84 outlet~;
#X obj 59 -52 inlet;
#X obj 97 22 print ERROR invalid filter method for individual notes
;
#X obj 58 -8 scale127 22000;
#X obj 58 -31 route frequency;
#X connect 0 0 2 0;
#X connect 1 0 0 0;
#X connect 2 0 3 0;
#X connect 3 0 4 0;
#X connect 4 0 5 0;
#X connect 5 0 6 0;
#X connect 7 0 10 0;
#X connect 9 0 0 1;
#X connect 9 0 2 1;
#X connect 9 0 3 1;
#X connect 9 0 4 1;
#X connect 9 0 5 1;
#X connect 10 0 9 0;
#X connect 10 1 8 0;
#X restore 5 77 pd lowpass;
#X obj 62 54 r \$0-filter;
#X obj 25 127 scale127 1;
#X connect 0 0 6 0;
#X connect 2 0 3 0;
#X connect 4 0 8 0;
#X connect 5 0 1 0;
#X connect 6 0 5 0;
#X connect 7 0 6 1;
#X connect 8 0 5 1;
