#N canvas 659 23 706 678 10;
#X obj -1 638 outlet~;
#X obj -1 132 mtof;
#X obj 354 127 bng 15 250 50 0 empty empty empty 17 7 0 10 -262144
-1 -1;
#X obj -1 110 +;
#X obj 414 113 - 64;
#X obj 413 134 / 64;
#X obj 413 284 s \$0-pitch_bend;
#X obj -22 59 r \$0-pitch_bend;
#X obj 37 81 t b f;
#X obj 270 102 list prepend set;
#X obj 270 124 list trim;
#X obj -1 31 unpack 0 0;
#X msg 481 305 print \$1;
#X msg 354 299 kill;
#X obj 270 -17 inlet METHODS;
#X obj 257 322 adsr~ -----------;
#X obj -1 155 phasor~;
#X obj -1 213 *~ 2051;
#X obj 85 154 phasor~;
#X obj 85 229 *~ 2051;
#X obj 85 205 wrap~;
#X obj -1 -17 r \$0-note;
#X obj 569 83 s \$0-note;
#X obj 70 374 *~;
#X obj -1 451 transistor~;
#X obj 70 451 transistor~;
#X obj 142 451 transistor~;
#X obj 142 376 -~;
#X obj 205 388 r \$0-mode;
#X obj 62 419 == 0;
#X obj 133 419 == 1;
#X obj 205 415 == 2;
#X obj 569 104 loadbang;
#X msg 569 123 0;
#X obj 526 146 s \$0-mode;
#X obj 484 169 s \$0-phase;
#X obj 165 114 r \$0-phase;
#X obj 364 348 sel 0;
#X msg 364 371 64;
#X obj 165 140 / 127;
#N canvas 108 287 487 176 lowpass 0;
#X obj 3 -41 inlet~;
#X obj 3 84 outlet~;
#X obj 79 -52 inlet;
#X obj 151 -10 print ERROR invalid filter method for individual notes
;
#X obj 78 -31 route frequency;
#X obj 77 -9 / 127;
#X obj 77 15 pow 2;
#X obj 78 35 * 22050;
#X floatatom 153 44 5 0 0 0 - - -;
#X obj 3 -18 lop~ 1230;
#X obj 3 2 lop~ 1230;
#X obj 3 22 lop~ 1230;
#X obj 3 42 lop~ 1230;
#X obj 3 62 lop~ 1230;
#X msg 122 -50 frequency 30;
#X connect 0 0 9 0;
#X connect 2 0 4 0;
#X connect 4 0 5 0;
#X connect 4 1 3 0;
#X connect 5 0 6 0;
#X connect 6 0 7 0;
#X connect 7 0 8 0;
#X connect 7 0 9 1;
#X connect 7 0 10 1;
#X connect 7 0 12 1;
#X connect 7 0 11 1;
#X connect 7 0 13 1;
#X connect 9 0 10 0;
#X connect 10 0 11 0;
#X connect 11 0 12 0;
#X connect 12 0 13 0;
#X connect 13 0 1 0;
#X connect 14 0 4 0;
#X restore -1 512 pd lowpass;
#X obj 56 489 r \$0-filter;
#X obj 270 40 route waveform adsr flush pitchbend pitchbend_range print
phase mode filter volume;
#X obj 522 240 s \$0-filter;
#X obj 20 547 r \$0-volume;
#X obj -1 599 *~ 1;
#X obj 257 188 unpack 0 0 0 0;
#X obj 257 210 / 127;
#X obj 258 250 * 10000;
#X obj 257 230 pow 3;
#X obj 308 210 / 127;
#X obj 308 250 * 10000;
#X obj 308 230 pow 3;
#X obj 311 274 / 127;
#X obj 258 295 pack 0 0 0 0;
#X obj 360 210 / 127;
#X obj 360 250 * 10000;
#X obj 360 230 pow 3;
#X obj -1 476 *~;
#X obj 244 457 loadbang;
#X msg 244 478 frequency 64;
#X obj 356 410 switch~;
#X obj 550 193 s \$0-volume;
#X obj -1 7 list trim;
#X obj 278 166 list trim;
#X obj 19 572 / 127;
#X floatatom 513 269 5 0 0 0 - - -;
#X obj 413 259 * 12;
#X obj 411 208 *;
#X obj 412 186 t f f;
#X obj -1 249 tabread4~ 2_table;
#X obj 85 321 tabread4~ 2_table;
#N canvas 170 432 450 300 init 0;
#X obj 15 6 loadbang;
#X obj 14 58 f \$0;
#X msg 15 84 \; \$1-methods filter frequency 30 \; \$1-methods phase
33 \; \$1-methods mode 2 \;;
#X obj 15 31 del 1;
#X connect 0 0 3 0;
#X connect 1 0 2 0;
#X connect 3 0 1 0;
#X restore 366 -16 pd init;
#X obj 85 178 +~ 0.787;
#X obj 177 -13 r \$0-methods;
#X obj 269 16 list trim;
#X floatatom 415 326 5 0 0 0 - - -;
#X floatatom 422 82 5 0 0 0 - - -;
#X obj 411 158 t f f;
#X obj 474 220 * -1;
#X obj 411 232 *;
#X obj 449 176 < 0;
#X obj 450 198 sel 0;
#X msg 441 219 1;
#X connect 1 0 16 0;
#X connect 1 0 18 0;
#X connect 2 0 13 0;
#X connect 3 0 1 0;
#X connect 4 0 5 0;
#X connect 5 0 78 0;
#X connect 7 0 8 0;
#X connect 8 0 3 0;
#X connect 8 1 3 1;
#X connect 9 0 10 0;
#X connect 10 0 70 0;
#X connect 10 0 71 0;
#X connect 11 0 3 0;
#X connect 11 1 15 0;
#X connect 13 0 15 0;
#X connect 14 0 75 0;
#X connect 15 0 58 1;
#X connect 15 1 37 0;
#X connect 15 1 61 0;
#X connect 16 0 17 0;
#X connect 17 0 70 0;
#X connect 18 0 73 0;
#X connect 19 0 71 0;
#X connect 20 0 19 0;
#X connect 21 0 63 0;
#X connect 23 0 25 0;
#X connect 24 0 58 0;
#X connect 25 0 58 0;
#X connect 26 0 58 0;
#X connect 27 0 26 0;
#X connect 28 0 29 0;
#X connect 28 0 30 0;
#X connect 28 0 31 0;
#X connect 29 0 24 1;
#X connect 30 0 25 1;
#X connect 31 0 26 1;
#X connect 32 0 33 0;
#X connect 33 0 34 0;
#X connect 36 0 39 0;
#X connect 37 0 38 0;
#X connect 38 0 4 0;
#X connect 39 0 73 1;
#X connect 40 0 45 0;
#X connect 41 0 40 1;
#X connect 42 0 9 0;
#X connect 42 1 64 0;
#X connect 42 2 2 0;
#X connect 42 3 4 0;
#X connect 42 4 67 1;
#X connect 42 5 12 0;
#X connect 42 6 35 0;
#X connect 42 7 34 0;
#X connect 42 8 43 0;
#X connect 42 9 62 0;
#X connect 42 10 22 0;
#X connect 44 0 65 0;
#X connect 45 0 0 0;
#X connect 46 0 47 0;
#X connect 46 1 50 0;
#X connect 46 2 53 0;
#X connect 46 3 55 0;
#X connect 47 0 49 0;
#X connect 48 0 54 0;
#X connect 49 0 48 0;
#X connect 50 0 52 0;
#X connect 51 0 54 1;
#X connect 52 0 51 0;
#X connect 53 0 54 2;
#X connect 54 0 15 1;
#X connect 55 0 57 0;
#X connect 56 0 54 3;
#X connect 57 0 56 0;
#X connect 58 0 40 0;
#X connect 59 0 60 0;
#X connect 60 0 40 1;
#X connect 63 0 11 0;
#X connect 64 0 46 0;
#X connect 65 0 45 1;
#X connect 67 0 6 0;
#X connect 67 0 76 0;
#X connect 68 0 80 0;
#X connect 69 0 68 0;
#X connect 69 1 68 1;
#X connect 70 0 23 0;
#X connect 70 0 27 0;
#X connect 70 0 24 0;
#X connect 71 0 23 1;
#X connect 71 0 27 1;
#X connect 73 0 20 0;
#X connect 74 0 42 0;
#X connect 75 0 42 0;
#X connect 77 0 4 0;
#X connect 78 0 69 0;
#X connect 78 1 81 0;
#X connect 79 0 80 1;
#X connect 80 0 67 0;
#X connect 81 0 82 0;
#X connect 82 0 83 0;
#X connect 82 1 79 0;
#X connect 83 0 80 1;
