#N canvas 610 23 1298 603 10;
#X obj 9 260 s note1;
#X obj 7 41 piano;
#X obj 255 457 s effects;
#X obj 7 -3 loadbang;
#X msg 6 19 legato 1;
#X obj 26 393 hsl 128 15 0 127 0 0 empty empty empty -2 -8 0 10 -262144
-1 -1 0 1;
#X msg 23 420 chorus auto \$1;
#X obj 163 393 hsl 128 15 0 127 0 0 empty empty empty -2 -8 0 10 -262144
-1 -1 0 1;
#X msg 160 420 ringmod auto \$1;
#X obj 14 451 hsl 128 15 0 127 0 0 empty empty empty -2 -8 0 10 -262144
-1 -1 0 1;
#X msg 11 478 delay auto \$1;
#X obj 303 377 tgl 15 0 empty empty empty 17 7 0 10 -262144 -1 -1 0
1;
#X obj 56 221 hsl 128 15 0 127 0 0 empty empty empty -2 -8 0 10 -262144
-1 -1 0 1;
#X msg 53 240 pitchbend \$1;
#X obj 186 261 s note2;
#X obj 690 46 piano;
#X obj 690 261 s note2;
#X obj 715 223 hsl 128 15 0 127 0 0 empty empty empty -2 -8 0 10 -262144
-1 -1 0 1;
#X msg 712 242 pitchbend \$1;
#X obj 387 387 hsl 128 15 0 127 0 0 empty empty empty -2 -8 0 10 -262144
-1 -1 0 1;
#X obj 521 386 hsl 128 15 0 127 0 0 empty empty empty -2 -8 0 10 -262144
-1 -1 0 1;
#X obj 657 388 hsl 128 15 0 127 0 0 empty empty empty -2 -8 0 10 -262144
-1 -1 0 1;
#X msg 1046 251 new;
#X msg 1070 254 reset;
#X obj 1052 282 s master;
#X msg 653 405 filter gain \$1;
#X obj 807 384 symbol;
#X msg 805 354 lowpass;
#X msg 856 354 highpass;
#X msg 912 355 bandpass;
#X floatatom 532 442 5 0 0 0 - - -;
#X msg 304 404 tremolo on \$1;
#X msg 383 404 tremolo rate \$1;
#X msg 517 403 tremolo depth \$1;
#X msg 811 407 filter type \$1;
#X msg 906 405 tremolo shape \$1;
#X obj 907 385 hradio 15 1 0 4 empty empty empty 0 -8 0 10 -262144
-1 -1 0;
#X obj 390 218 hsl 128 15 0 127 0 0 empty empty empty -2 -8 0 10 -262144
-1 -1 0 1;
#X obj 346 457 hsl 128 15 0 127 0 0 empty empty empty -2 -8 0 10 -262144
-1 -1 0 1;
#X msg 342 474 tremolo auto \$1;
#X obj 261 242 hsl 128 15 0 127 0 0 empty empty empty -2 -8 0 10 -262144
-1 -1 0 1;
#X msg 258 269 phase \$1;
#X obj 323 497 hsl 128 15 0 127 0 0 empty empty empty -2 -8 0 10 -262144
-1 -1 0 1;
#X msg 319 514 filter auto \$1;
#X obj 117 504 hsl 128 15 0 127 0 0 empty empty empty -2 -8 0 10 -262144
-1 -1 0 1;
#X msg 113 521 filter resonance \$1;
#X obj 337 312 hradio 15 1 0 27 empty empty empty 0 -8 0 10 -262144
-1 -1 0;
#X msg 337 335 waveform \$1_table;
#X floatatom 465 345 5 0 0 0 - - -;
#X connect 1 0 0 0;
#X connect 3 0 4 0;
#X connect 4 0 1 0;
#X connect 5 0 6 0;
#X connect 6 0 2 0;
#X connect 7 0 8 0;
#X connect 8 0 2 0;
#X connect 9 0 10 0;
#X connect 10 0 2 0;
#X connect 11 0 31 0;
#X connect 12 0 13 0;
#X connect 13 0 0 0;
#X connect 15 0 16 0;
#X connect 17 0 18 0;
#X connect 18 0 16 0;
#X connect 19 0 32 0;
#X connect 20 0 33 0;
#X connect 20 0 30 0;
#X connect 21 0 25 0;
#X connect 22 0 24 0;
#X connect 23 0 24 0;
#X connect 25 0 2 0;
#X connect 26 0 34 0;
#X connect 27 0 26 0;
#X connect 28 0 26 0;
#X connect 29 0 26 0;
#X connect 31 0 2 0;
#X connect 32 0 2 0;
#X connect 33 0 2 0;
#X connect 34 0 2 0;
#X connect 35 0 2 0;
#X connect 36 0 35 0;
#X connect 38 0 39 0;
#X connect 39 0 2 0;
#X connect 40 0 41 0;
#X connect 41 0 0 0;
#X connect 42 0 43 0;
#X connect 43 0 2 0;
#X connect 44 0 45 0;
#X connect 45 0 2 0;
#X connect 46 0 47 0;
#X connect 46 0 48 0;
#X connect 47 0 0 0;
