#N canvas 269 459 982 387 10;
#X obj 96 49 piano;
#X obj 96 287 s note;
#X msg 119 242 waveform triangle_table;
#X obj 157 308 s note;
#X obj 368 245 hsl 128 15 0 40 0 0 empty empty empty -2 -8 0 10 -262144
-1 -1 0 1;
#X obj 364 321 s effects;
#X msg 549 269 delay on 1;
#X msg 619 269 delay time \$1;
#X msg 708 268 delay feedback \$1;
#X floatatom 618 249 5 0 0 0 - - -;
#X floatatom 709 249 5 0 0 0 - - -;
#X msg 821 267 delay amount \$1;
#X floatatom 821 248 5 0 0 0 - - -;
#X obj 231 322 s all;
#X msg 466 272 tremolo on 1;
#X msg 364 264 tremolo rate \$1;
#X msg 213 275 waveform sawtooth_table;
#X msg 241 297 flush;
#X connect 0 0 1 0;
#X connect 2 0 1 0;
#X connect 4 0 15 0;
#X connect 6 0 5 0;
#X connect 7 0 5 0;
#X connect 8 0 5 0;
#X connect 9 0 7 0;
#X connect 10 0 8 0;
#X connect 11 0 5 0;
#X connect 12 0 11 0;
#X connect 14 0 5 0;
#X connect 15 0 5 0;
#X connect 16 0 5 0;
#X connect 16 0 13 0;
#X connect 17 0 13 0;
