#N canvas 272 172 1028 634 10;
#X obj 96 49 piano;
#X obj 96 268 s note;
#X obj 335 228 hsl 128 15 0 40 0 0 empty empty empty -2 -8 0 10 -262144
-1 -1 0 1;
#X obj 364 321 s effects;
#X msg 549 269 delay on 1;
#X msg 619 269 delay time \$1;
#X msg 708 268 delay feedback \$1;
#X floatatom 618 249 5 0 0 0 - - -;
#X floatatom 709 249 5 0 0 0 - - -;
#X msg 821 267 delay amount \$1;
#X floatatom 821 248 5 0 0 0 - - -;
#X obj 231 322 s all;
#X msg 241 297 flush;
#X msg 331 247 filter frequency \$1;
#X msg 119 242 waveform sawtooth_table;
#X msg 358 273 filter on 1;
#X msg 213 275 waveform 13_table;
#X msg 466 272 tremolo on 0;
#X msg 108 300 adsr 1 200 0 0;
#X connect 0 0 1 0;
#X connect 2 0 13 0;
#X connect 4 0 3 0;
#X connect 5 0 3 0;
#X connect 6 0 3 0;
#X connect 7 0 5 0;
#X connect 8 0 6 0;
#X connect 9 0 3 0;
#X connect 10 0 9 0;
#X connect 12 0 11 0;
#X connect 13 0 3 0;
#X connect 14 0 1 0;
#X connect 15 0 3 0;
#X connect 16 0 11 0;
#X connect 17 0 3 0;
#X connect 18 0 11 0;
