#N canvas 809 27 371 178 10;
#X obj 7 -58 r \$0-note;
#X obj 82 24 r \$0-effects;
#N canvas 457 536 387 102 init 0;
#X obj -145 4 loadbang;
#X obj -89 9 bng 15 250 50 0 empty empty empty 17 7 0 10 -262144 -1
-1;
#X obj -145 66 s \$0-note;
#X msg -145 27 adsr 2 1000 0.2 600 \, pitchbend_range 12 \, print 1
\, waveform sawtooth_table;
#X connect 0 0 3 0;
#X connect 1 0 3 0;
#X connect 3 0 2 0;
#X restore 221 -57 pd init;
#X obj 68 -58 r note;
#X obj 271 12 s master;
#X obj 271 -58 loadbang;
#X obj 271 -28 f \$0;
#X msg 271 -8 \$1-wavetable;
#X obj 7 46 note_effects;
#X obj 7 68 throw~ master_bus;
#X obj 7 88 print TO_WAVETABLE-\$0;
#X obj 139 88 print TO_WAVETABLE_EFFECTS-\$0;
#X obj 119 -57 r \$0-wavetable;
#X obj 119 -35 route effect;
#X obj 24 6 synth2~;
#X connect 0 0 10 0;
#X connect 0 0 14 0;
#X connect 1 0 11 0;
#X connect 1 0 8 1;
#X connect 3 0 14 0;
#X connect 5 0 6 0;
#X connect 6 0 7 0;
#X connect 7 0 4 0;
#X connect 8 0 9 0;
#X connect 12 0 13 0;
#X connect 13 0 8 1;
#X connect 13 1 14 0;
#X connect 14 0 8 0;
