#N canvas 731 23 359 168 10;
#X obj 1 2 r \$0-note;
#X obj 148 75 r \$0-effects;
#X obj 1 25 route waveform adsr flush pitchbend pitchbend_range print
;
#X obj 73 96 effects_rack~;
#X obj 73 116 throw~ master_busL;
#X obj 148 136 throw~ master_busR;
#X obj 73 53 synth8~ ____________;
#X obj 190 96 tgl 15 0 empty empty empty 17 7 0 10 -262144 -1 -1 0
1;
#N canvas 883 368 320 209 init 0;
#X obj -145 4 loadbang;
#X obj -75 2 bng 15 250 50 0 empty empty empty 17 7 0 10 -262144 -1
-1;
#X msg -145 37 waveform default_wavetable \, adsr 1 1000 0.2 600 \,
pitchbend_range 12 \, print 1 \,;
#X obj -145 76 s \$0-note;
#X connect 0 0 2 0;
#X connect 1 0 2 0;
#X connect 2 0 3 0;
#X restore 64 2 pd init;
#X obj 116 3 r note;
#X connect 0 0 2 0;
#X connect 1 0 3 1;
#X connect 2 0 6 1;
#X connect 2 1 6 2;
#X connect 2 2 6 3;
#X connect 2 3 6 4;
#X connect 2 4 6 5;
#X connect 2 5 6 6;
#X connect 2 6 6 0;
#X connect 3 0 4 0;
#X connect 3 1 5 0;
#X connect 6 0 3 0;
#X connect 6 2 7 0;
#X connect 9 0 2 0;
