#N canvas 345 235 671 435 10;
#X obj 7 -58 r \$0-note;
#X obj 82 284 r \$0-effects;
#N canvas 457 536 387 102 init 0;
#X obj -145 4 loadbang;
#X obj -89 9 bng 15 250 50 0 empty empty empty 17 7 0 10 -262144 -1
-1;
#X obj -145 66 s \$0-note;
#X msg -145 27 adsr 2 1000 0.2 600 \, pitchbend_range 12 \, print 1
\, waveform sawtooth_table;
#X connect 0 0 3 0;
#X connect 1 0 3 0;
#X connect 3 0 2 0;
#X restore 221 -57 pd init;
#X obj 271 12 s master;
#X obj 271 -58 loadbang;
#X obj 271 -28 f \$0;
#X msg 271 -8 \$1-wavetable;
#X obj 7 306 note_effects;
#X obj 7 328 throw~ master_bus;
#X obj 7 348 print TO_WAVETABLE-\$0;
#X obj 139 348 print TO_WAVETABLE_EFFECTS-\$0;
#X obj 119 -57 r \$0-wavetable;
#X obj 119 -35 route effect;
#X obj 68 -58 r note1;
#X obj 165 254 +~;
#X obj 165 212 voice~ 1;
#X obj 29 33 route waveform adsr flush pitchbend pitchbend_range print
phase mode;
#X msg -24 90 waveform \$1;
#X obj -24 71 symbol;
#X obj 223 212 voice~ 1;
#X msg 51 90 adsr \$1 \$2 \$3 \$4;
#X msg 157 90 flush;
#X msg 197 90 pitchbend \$1;
#X msg 279 90 pitchbend_range \$1;
#X msg 396 90 print \$1;
#X msg 454 90 phase \$1;
#X msg 512 90 mode \$1;
#X obj 565 113 pack 0 0 0;
#X obj 565 90 poly 2 1;
#X obj 565 135 route 1 2;
#X connect 0 0 9 0;
#X connect 0 0 16 0;
#X connect 1 0 10 0;
#X connect 1 0 7 1;
#X connect 4 0 5 0;
#X connect 5 0 6 0;
#X connect 6 0 3 0;
#X connect 7 0 8 0;
#X connect 11 0 12 0;
#X connect 12 0 7 1;
#X connect 12 1 16 0;
#X connect 13 0 16 0;
#X connect 14 0 7 0;
#X connect 15 0 14 0;
#X connect 16 0 18 0;
#X connect 16 1 20 0;
#X connect 16 2 21 0;
#X connect 16 3 22 0;
#X connect 16 4 23 0;
#X connect 16 5 24 0;
#X connect 16 6 25 0;
#X connect 16 7 26 0;
#X connect 16 8 28 0;
#X connect 17 0 15 0;
#X connect 17 0 19 0;
#X connect 18 0 17 0;
#X connect 19 0 14 1;
#X connect 20 0 15 0;
#X connect 20 0 19 0;
#X connect 21 0 15 0;
#X connect 21 0 19 0;
#X connect 22 0 15 0;
#X connect 22 0 19 0;
#X connect 23 0 15 0;
#X connect 23 0 19 0;
#X connect 24 0 15 0;
#X connect 24 0 19 0;
#X connect 25 0 15 0;
#X connect 25 0 19 0;
#X connect 26 0 15 0;
#X connect 26 0 19 0;
#X connect 27 0 29 0;
#X connect 28 0 27 0;
#X connect 28 1 27 1;
#X connect 28 2 27 2;
#X connect 29 0 15 0;
#X connect 29 1 19 0;
