#N canvas 735 23 251 92 10;
#X obj 7 2 r \$0-note;
#X obj 82 24 r \$0-effects;
#N canvas 457 536 387 102 init 0;
#X obj -145 4 loadbang;
#X obj -89 9 bng 15 250 50 0 empty empty empty 17 7 0 10 -262144 -1
-1;
#X obj -145 66 s \$0-note;
#X msg -145 27 adsr 0 1000 0.2 600 \, pitchbend_range 12 \, print 1
;
#X connect 0 0 3 0;
#X connect 1 0 3 0;
#X connect 3 0 2 0;
#X restore 111 2 pd init;
#X obj 68 2 r note;
#X obj 161 62 s master;
#X obj 161 2 loadbang;
#X obj 161 22 f \$0;
#X msg 161 42 \$1-wavetable;
#X obj 7 46 note_effects;
#X obj 7 25 voice~;
#X obj 7 68 throw~ master_bus;
#X connect 0 0 9 0;
#X connect 1 0 8 1;
#X connect 3 0 9 0;
#X connect 5 0 6 0;
#X connect 6 0 7 0;
#X connect 7 0 4 0;
#X connect 8 0 10 0;
#X connect 9 0 8 0;
